<svg width="286" height="38" viewBox="0 0 286 38" fill="none" xmlns="http://www.w3.org/2000/svg">
<g filter="url(#filter0_d_3_15)">
<path d="M12.568 26V4.22L13.9 5.552H4.54V0.799998H26.392V5.552H17.032L18.328 4.22V26H12.568ZM37.1211 26.288C34.9131 26.288 32.9691 25.856 31.2891 24.992C29.6331 24.128 28.3491 22.952 27.4371 21.464C26.5251 19.952 26.0691 18.236 26.0691 16.316C26.0691 14.372 26.5131 12.656 27.4011 11.168C28.3131 9.656 29.5491 8.48 31.1091 7.64C32.6691 6.776 34.4331 6.344 36.4011 6.344C38.2971 6.344 40.0011 6.752 41.5131 7.568C43.0491 8.36 44.2611 9.512 45.1491 11.024C46.0371 12.512 46.4811 14.3 46.4811 16.388C46.4811 16.604 46.4691 16.856 46.4451 17.144C46.4211 17.408 46.3971 17.66 46.3731 17.9H30.6411V14.624H43.4211L41.2611 15.596C41.2611 14.588 41.0571 13.712 40.6491 12.968C40.2411 12.224 39.6771 11.648 38.9571 11.24C38.2371 10.808 37.3971 10.592 36.4371 10.592C35.4771 10.592 34.6251 10.808 33.8811 11.24C33.1611 11.648 32.5971 12.236 32.1891 13.004C31.7811 13.748 31.5771 14.636 31.5771 15.668V16.532C31.5771 17.588 31.8051 18.524 32.2611 19.34C32.7411 20.132 33.4011 20.744 34.2411 21.176C35.1051 21.584 36.1131 21.788 37.2651 21.788C38.2971 21.788 39.1971 21.632 39.9651 21.32C40.7571 21.008 41.4771 20.54 42.1251 19.916L45.1131 23.156C44.2251 24.164 43.1091 24.944 41.7651 25.496C40.4211 26.024 38.8731 26.288 37.1211 26.288ZM50.7859 26V6.632H56.6539L63.9619 19.88H61.6219L69.4339 6.632H74.6899L74.7619 26H69.6859V12.392L70.5499 12.968L63.8899 24.128H61.5139L54.8179 12.572L55.8619 12.32V26H50.7859ZM93.3534 21.392L92.1294 22.688V6.632H97.7454V22.688L96.4494 21.392H105.377L104.117 22.688V6.632H109.697V26H80.1414V6.632H85.7214V22.688L84.4614 21.392H93.3534ZM107.177 29.852V24.704L108.437 26H103.973V21.392H112.397V29.852H107.177ZM115.087 26V6.632H120.667V18.152L130.099 6.632H135.247V26H129.667V14.48L120.271 26H115.087ZM154.361 26L147.881 16.82L152.453 14.12L160.985 26H154.361ZM140.645 26V6.632H146.261V26H140.645ZM144.605 18.656V14.156H151.373V18.656H144.605ZM152.993 16.964L147.737 16.388L154.541 6.632H160.517L152.993 16.964ZM163.743 26V6.632H169.323V18.152L178.755 6.632H183.903V26H178.323V14.48L168.927 26H163.743Z" fill="black"/>
<path d="M201.513 26.288C200.553 26.288 199.725 25.964 199.029 25.316C198.357 24.644 198.021 23.792 198.021 22.76C198.021 21.728 198.357 20.9 199.029 20.276C199.725 19.628 200.553 19.304 201.513 19.304C202.497 19.304 203.325 19.628 203.997 20.276C204.669 20.9 205.005 21.728 205.005 22.76C205.005 23.792 204.669 24.644 203.997 25.316C203.325 25.964 202.497 26.288 201.513 26.288ZM209.207 26V0.799998H214.031L228.899 18.944H226.559V0.799998H232.319V26H227.531L212.627 7.856H214.967V26H209.207ZM243.645 10.952H255.777V15.488H243.645V10.952ZM244.077 21.32H257.793V26H238.281V0.799998H257.325V5.48H244.077V21.32ZM267.653 26V5.552H259.589V0.799998H281.549V5.552H273.485V26H267.653Z" fill="#18C375"/>
</g>
<defs>
<filter id="filter0_d_3_15" x="0.540039" y="0.800003" width="285.009" height="37.052" filterUnits="userSpaceOnUse" color-interpolation-filters="sRGB">
<feFlood flood-opacity="0" result="BackgroundImageFix"/>
<feColorMatrix in="SourceAlpha" type="matrix" values="0 0 0 0 0 0 0 0 0 0 0 0 0 0 0 0 0 0 127 0" result="hardAlpha"/>
<feOffset dy="4"/>
<feGaussianBlur stdDeviation="2"/>
<feComposite in2="hardAlpha" operator="out"/>
<feColorMatrix type="matrix" values="0 0 0 0 0 0 0 0 0 0 0 0 0 0 0 0 0 0 0.25 0"/>
<feBlend mode="normal" in2="BackgroundImageFix" result="effect1_dropShadow_3_15"/>
<feBlend mode="normal" in="SourceGraphic" in2="effect1_dropShadow_3_15" result="shape"/>
</filter>
</defs>
</svg>
